<?xml version="1.0" encoding="UTF-8"?>
<svg width="96px" height="60px" viewBox="0 0 96 60" version="1.1" xmlns="http://www.w3.org/2000/svg" xmlns:xlink="http://www.w3.org/1999/xlink">
    <!-- Generator: Sketch 49.3 (51167) - http://www.bohemiancoding.com/sketch -->
    <title>option-png-active</title>
    <desc>Created with Sketch.</desc>
    <defs>
        <rect id="path-1" x="0" y="0" width="96" height="60" rx="5"></rect>
    </defs>
    <g id="Page-1" stroke="none" stroke-width="1" fill="none" fill-rule="evenodd">
        <g id="option-png-active">
            <mask id="mask-2" fill="white">
                <use xlink:href="#path-1"></use>
            </mask>
            <use id="Mask" fill="#FFFFFF" xlink:href="#path-1"></use>
            <path d="M37.3333333,46 L37.3333333,40.6666667 L42.6666667,40.6666667 L42.6666667,46 L37.3333333,46 Z M32,24.6666667 L37.3333333,24.6666667 L37.3333333,30 L32,30 L32,24.6666667 Z M37.3333333,35.3333333 L37.3333333,40.6666667 L32,40.6666667 L32,35.3333333 L37.3333333,35.3333333 Z M32,14 L37.3333333,14 L37.3333333,19.3333333 L32,19.3333333 L32,14 Z M53.3333333,30 L53.3333333,24.6666667 L58.6666667,24.6666667 L58.6666667,30 L53.3333333,30 Z M64,24.6666667 L58.6666667,24.6666667 L58.6666667,19.3333333 L64,19.3333333 L64,24.6666667 Z M64,46 L58.6666667,46 L58.6666667,40.6666667 L64,40.6666667 L64,46 Z M64,35.3333333 L58.6666667,35.3333333 L58.6666667,30 L64,30 L64,35.3333333 Z M48,46 L48,40.6666667 L53.3333333,40.6666667 L53.3333333,46 L48,46 Z M58.6666667,14 L58.6666667,19.3333333 L53.3333333,19.3333333 L53.3333333,14 L58.6666667,14 Z M42.6666667,35.3333333 L48,35.3333333 L48,40.6666667 L42.6666667,40.6666667 L42.6666667,35.3333333 Z M53.3333333,40.6666667 L53.3333333,35.3333333 L58.6666667,35.3333333 L58.6666667,40.6666667 L53.3333333,40.6666667 Z M48,14 L48,19.3333333 L42.6666667,19.3333333 L42.6666667,14 L48,14 Z M53.3333333,24.6666667 L48,24.6666667 L48,19.3333333 L53.3333333,19.3333333 L53.3333333,24.6666667 Z M48,24.6666667 L48,30 L42.6666667,30 L42.6666667,24.6666667 L48,24.6666667 Z M42.6666667,30 L42.6666667,35.3333333 L37.3333333,35.3333333 L37.3333333,30 L42.6666667,30 Z M48,35.3333333 L48,30 L53.3333333,30 L53.3333333,35.3333333 L48,35.3333333 Z M42.6666667,19.3333333 L42.6666667,24.6666667 L37.3333333,24.6666667 L37.3333333,19.3333333 L42.6666667,19.3333333 Z" id="Combined-Shape" fill="#006EFF" opacity="0.699999988" mask="url(#mask-2)"></path>
        </g>
    </g>
</svg>