<?xml version="1.0" encoding="UTF-8"?>
<svg width="96px" height="60px" viewBox="0 0 96 60" version="1.1" xmlns="http://www.w3.org/2000/svg" xmlns:xlink="http://www.w3.org/1999/xlink">
    <!-- Generator: Sketch 49.3 (51167) - http://www.bohemiancoding.com/sketch -->
    <title>option-disable-active</title>
    <desc>Created with Sketch.</desc>
    <defs></defs>
    <g id="Page-1" stroke="none" stroke-width="1" fill="none" fill-rule="evenodd">
        <g id="option-disable-active">
            <rect id="Mask" fill="#FFFFFF" x="0" y="0" width="96" height="60" rx="5"></rect>
            <g id="ic-do-not-disturb-48-px" transform="translate(36.000000, 18.000000)" fill="#006EFF" fill-rule="nonzero" opacity="0.699999988">
                <path d="M12,0 C5.37,0 0,5.37 0,12 C0,18.63 5.37,24 12,24 C18.63,24 24,18.63 24,12 C24,5.37 18.63,0 12,0 Z M12,21.6 C6.696,21.6 2.4,17.304 2.4,12 C2.4,9.78 3.162,7.746 4.422,6.12 L17.88,19.578 C16.254,20.838 14.22,21.6 12,21.6 Z M19.578,17.88 L6.12,4.422 C7.746,3.162 9.78,2.4 12,2.4 C17.304,2.4 21.6,6.696 21.6,12 C21.6,14.22 20.838,16.254 19.578,17.88 Z" id="Shape"></path>
            </g>
        </g>
    </g>
</svg>