<svg width="16" height="16" viewBox="0 0 16 16" fill="none" xmlns="http://www.w3.org/2000/svg">
<path d="M6.55198 3.33333L5.21865 4.66667H2.66665V12.6667H13.3333V4.66667H10.7813L9.44798 3.33333H6.55198ZM5.99998 2H9.99998L11.3333 3.33333H14C14.1768 3.33333 14.3464 3.40357 14.4714 3.5286C14.5964 3.65362 14.6666 3.82319 14.6666 4V13.3333C14.6666 13.5101 14.5964 13.6797 14.4714 13.8047C14.3464 13.9298 14.1768 14 14 14H1.99998C1.82317 14 1.6536 13.9298 1.52858 13.8047C1.40355 13.6797 1.33331 13.5101 1.33331 13.3333V4C1.33331 3.82319 1.40355 3.65362 1.52858 3.5286C1.6536 3.40357 1.82317 3.33333 1.99998 3.33333H4.66665L5.99998 2ZM7.99998 12C7.02752 12 6.09489 11.6137 5.40725 10.9261C4.71962 10.2384 4.33331 9.30579 4.33331 8.33333C4.33331 7.36087 4.71962 6.42824 5.40725 5.74061C6.09489 5.05297 7.02752 4.66667 7.99998 4.66667C8.97244 4.66667 9.90507 5.05297 10.5927 5.74061C11.2803 6.42824 11.6666 7.36087 11.6666 8.33333C11.6666 9.30579 11.2803 10.2384 10.5927 10.9261C9.90507 11.6137 8.97244 12 7.99998 12ZM7.99998 10.6667C8.61882 10.6667 9.21231 10.4208 9.6499 9.98325C10.0875 9.54566 10.3333 8.95217 10.3333 8.33333C10.3333 7.7145 10.0875 7.121 9.6499 6.68342C9.21231 6.24583 8.61882 6 7.99998 6C7.38114 6 6.78765 6.24583 6.35006 6.68342C5.91248 7.121 5.66665 7.7145 5.66665 8.33333C5.66665 8.95217 5.91248 9.54566 6.35006 9.98325C6.78765 10.4208 7.38114 10.6667 7.99998 10.6667V10.6667Z" fill="black"/>
</svg>
