<svg width="16" height="16" viewBox="0 0 16 16" fill="none" xmlns="http://www.w3.org/2000/svg">
<path d="M10.6666 8.66667L15.3093 11.3747L13.3273 11.9413L14.744 14.3953L13.5893 15.062L12.1726 12.6087L10.6906 14.042L10.6666 8.66667ZM9.33331 4H10.6666V5.33333H14C14.1768 5.33333 14.3464 5.40357 14.4714 5.52859C14.5964 5.65362 14.6666 5.82319 14.6666 6V8.66667H13.3333V6.66667H6.66665V13.3333H9.33331V14.6667H5.99998C5.82317 14.6667 5.6536 14.5964 5.52858 14.4714C5.40355 14.3464 5.33331 14.1768 5.33331 14V10.6667H3.99998V9.33333H5.33331V6C5.33331 5.82319 5.40355 5.65362 5.52858 5.52859C5.6536 5.40357 5.82317 5.33333 5.99998 5.33333H9.33331V4ZM2.66665 9.33333V10.6667H1.33331V9.33333H2.66665ZM2.66665 6.66667V8H1.33331V6.66667H2.66665ZM2.66665 4V5.33333H1.33331V4H2.66665ZM2.66665 1.33333V2.66667H1.33331V1.33333H2.66665ZM5.33331 1.33333V2.66667H3.99998V1.33333H5.33331ZM7.99998 1.33333V2.66667H6.66665V1.33333H7.99998ZM10.6666 1.33333V2.66667H9.33331V1.33333H10.6666Z" fill="black"/>
</svg>
