<svg width="16" height="16" viewBox="0 0 16 16" fill="none" xmlns="http://www.w3.org/2000/svg">
<path d="M8.00002 0.666672L14.3334 4.33334V11.6667L8.00002 15.3333L1.66669 11.6667V4.33334L8.00002 0.666672ZM8.00002 2.20734L3.00002 5.10201V10.898L8.00002 13.7927L13 10.898V5.10201L8.00002 2.20734ZM8.00002 10.6667C7.29278 10.6667 6.6145 10.3857 6.1144 9.88562C5.61431 9.38553 5.33335 8.70725 5.33335 8.00001C5.33335 7.29276 5.61431 6.61448 6.1144 6.11439C6.6145 5.61429 7.29278 5.33334 8.00002 5.33334C8.70726 5.33334 9.38554 5.61429 9.88564 6.11439C10.3857 6.61448 10.6667 7.29276 10.6667 8.00001C10.6667 8.70725 10.3857 9.38553 9.88564 9.88562C9.38554 10.3857 8.70726 10.6667 8.00002 10.6667ZM8.00002 9.33334C8.35364 9.33334 8.69278 9.19286 8.94283 8.94281C9.19288 8.69277 9.33335 8.35363 9.33335 8.00001C9.33335 7.64638 9.19288 7.30724 8.94283 7.0572C8.69278 6.80715 8.35364 6.66667 8.00002 6.66667C7.6464 6.66667 7.30726 6.80715 7.05721 7.0572C6.80716 7.30724 6.66669 7.64638 6.66669 8.00001C6.66669 8.35363 6.80716 8.69277 7.05721 8.94281C7.30726 9.19286 7.6464 9.33334 8.00002 9.33334Z" fill="black"/>
</svg>
